<mxfile host="app.diagrams.net" agent="Mozilla/5.0 (Windows NT 10.0; Win64; x64) AppleWebKit/537.36 (KHTML, like Gecko) Chrome/133.0.0.0 Safari/537.36" version="26.0.16">
  <diagram name="1 oldal" id="6HJYkfweH2awvkiNCbvp">
    <mxGraphModel dx="1034" dy="446" grid="1" gridSize="10" guides="1" tooltips="1" connect="1" arrows="1" fold="1" page="1" pageScale="1" pageWidth="827" pageHeight="1169" math="0" shadow="0">
      <root>
        <mxCell id="0" />
        <mxCell id="1" parent="0" />
        <mxCell id="C64Jrk6upL9wqdpvDmy1-1" value="&lt;b&gt;Termék&lt;/b&gt;" style="rounded=0;whiteSpace=wrap;strokeWidth=3;html=1;" parent="1" vertex="1">
          <mxGeometry x="125" y="190" width="120" height="60" as="geometry" />
        </mxCell>
        <mxCell id="C64Jrk6upL9wqdpvDmy1-3" value="&lt;b&gt;Gyártó&lt;/b&gt;" style="rounded=0;whiteSpace=wrap;strokeWidth=3;html=1;" parent="1" vertex="1">
          <mxGeometry x="585" y="190" width="120" height="60" as="geometry" />
        </mxCell>
        <mxCell id="C64Jrk6upL9wqdpvDmy1-4" value="&lt;b&gt;&lt;u&gt;Tkód&lt;/u&gt;&lt;/b&gt;" style="ellipse;whiteSpace=wrap;html=1;" parent="1" vertex="1">
          <mxGeometry x="40" y="280" width="90" height="40" as="geometry" />
        </mxCell>
        <mxCell id="C64Jrk6upL9wqdpvDmy1-5" value="&lt;b&gt;Név&lt;/b&gt;" style="ellipse;whiteSpace=wrap;html=1;" parent="1" vertex="1">
          <mxGeometry x="140" y="280" width="90" height="40" as="geometry" />
        </mxCell>
        <mxCell id="C64Jrk6upL9wqdpvDmy1-6" value="&lt;b&gt;Ear&lt;/b&gt;" style="ellipse;whiteSpace=wrap;html=1;" parent="1" vertex="1">
          <mxGeometry x="240" y="280" width="90" height="40" as="geometry" />
        </mxCell>
        <mxCell id="C64Jrk6upL9wqdpvDmy1-7" value="" style="endArrow=none;html=1;rounded=0;entryX=0;entryY=1;entryDx=0;entryDy=0;" parent="1" target="C64Jrk6upL9wqdpvDmy1-1" edge="1">
          <mxGeometry width="50" height="50" relative="1" as="geometry">
            <mxPoint x="80" y="280" as="sourcePoint" />
            <mxPoint x="130" y="230" as="targetPoint" />
          </mxGeometry>
        </mxCell>
        <mxCell id="C64Jrk6upL9wqdpvDmy1-8" value="" style="endArrow=none;html=1;rounded=0;entryX=0;entryY=1;entryDx=0;entryDy=0;exitX=0.5;exitY=0;exitDx=0;exitDy=0;" parent="1" source="C64Jrk6upL9wqdpvDmy1-6" edge="1">
          <mxGeometry width="50" height="50" relative="1" as="geometry">
            <mxPoint x="200" y="280" as="sourcePoint" />
            <mxPoint x="245" y="240" as="targetPoint" />
          </mxGeometry>
        </mxCell>
        <mxCell id="C64Jrk6upL9wqdpvDmy1-9" value="" style="endArrow=none;html=1;rounded=0;entryX=0.5;entryY=1;entryDx=0;entryDy=0;exitX=0.5;exitY=0;exitDx=0;exitDy=0;" parent="1" source="C64Jrk6upL9wqdpvDmy1-5" target="C64Jrk6upL9wqdpvDmy1-1" edge="1">
          <mxGeometry width="50" height="50" relative="1" as="geometry">
            <mxPoint x="162.5" y="280" as="sourcePoint" />
            <mxPoint x="207.5" y="240" as="targetPoint" />
          </mxGeometry>
        </mxCell>
        <mxCell id="C64Jrk6upL9wqdpvDmy1-10" value="&lt;b&gt;Név&lt;/b&gt;" style="ellipse;whiteSpace=wrap;html=1;" parent="1" vertex="1">
          <mxGeometry x="700" y="280" width="90" height="40" as="geometry" />
        </mxCell>
        <mxCell id="C64Jrk6upL9wqdpvDmy1-11" value="&lt;b&gt;Postacím&lt;/b&gt;" style="ellipse;whiteSpace=wrap;html=1;" parent="1" vertex="1">
          <mxGeometry x="600" y="280" width="90" height="40" as="geometry" />
        </mxCell>
        <mxCell id="C64Jrk6upL9wqdpvDmy1-12" value="&lt;b&gt;&lt;u&gt;Adószám&lt;/u&gt;&lt;/b&gt;" style="ellipse;whiteSpace=wrap;html=1;" parent="1" vertex="1">
          <mxGeometry x="500" y="280" width="90" height="40" as="geometry" />
        </mxCell>
        <mxCell id="C64Jrk6upL9wqdpvDmy1-15" value="" style="endArrow=none;html=1;rounded=0;entryX=0.5;entryY=1;entryDx=0;entryDy=0;exitX=0.5;exitY=0;exitDx=0;exitDy=0;" parent="1" source="C64Jrk6upL9wqdpvDmy1-24" target="C64Jrk6upL9wqdpvDmy1-11" edge="1">
          <mxGeometry width="50" height="50" relative="1" as="geometry">
            <mxPoint x="650" y="360" as="sourcePoint" />
            <mxPoint x="640" y="320" as="targetPoint" />
          </mxGeometry>
        </mxCell>
        <mxCell id="C64Jrk6upL9wqdpvDmy1-16" value="" style="endArrow=none;html=1;rounded=0;entryX=0.5;entryY=1;entryDx=0;entryDy=0;exitX=0.5;exitY=0;exitDx=0;exitDy=0;" parent="1" source="C64Jrk6upL9wqdpvDmy1-23" edge="1">
          <mxGeometry width="50" height="50" relative="1" as="geometry">
            <mxPoint x="590" y="370" as="sourcePoint" />
            <mxPoint x="630" y="320" as="targetPoint" />
          </mxGeometry>
        </mxCell>
        <mxCell id="C64Jrk6upL9wqdpvDmy1-17" value="" style="endArrow=none;html=1;rounded=0;entryX=0.5;entryY=1;entryDx=0;entryDy=0;" parent="1" edge="1">
          <mxGeometry width="50" height="50" relative="1" as="geometry">
            <mxPoint x="740" y="280" as="sourcePoint" />
            <mxPoint x="640" y="250" as="targetPoint" />
          </mxGeometry>
        </mxCell>
        <mxCell id="C64Jrk6upL9wqdpvDmy1-18" value="" style="endArrow=none;html=1;rounded=0;entryX=0.375;entryY=0.983;entryDx=0;entryDy=0;exitX=0.5;exitY=0;exitDx=0;exitDy=0;entryPerimeter=0;" parent="1" source="C64Jrk6upL9wqdpvDmy1-11" target="C64Jrk6upL9wqdpvDmy1-3" edge="1">
          <mxGeometry width="50" height="50" relative="1" as="geometry">
            <mxPoint x="720" y="280" as="sourcePoint" />
            <mxPoint x="620" y="250" as="targetPoint" />
          </mxGeometry>
        </mxCell>
        <mxCell id="C64Jrk6upL9wqdpvDmy1-19" value="" style="endArrow=none;html=1;rounded=0;entryX=0.25;entryY=1;entryDx=0;entryDy=0;" parent="1" target="C64Jrk6upL9wqdpvDmy1-3" edge="1">
          <mxGeometry width="50" height="50" relative="1" as="geometry">
            <mxPoint x="550" y="279" as="sourcePoint" />
            <mxPoint x="620" y="279" as="targetPoint" />
          </mxGeometry>
        </mxCell>
        <mxCell id="C64Jrk6upL9wqdpvDmy1-20" value="" style="endArrow=none;html=1;rounded=0;entryX=0.5;entryY=1;entryDx=0;entryDy=0;" parent="1" edge="1">
          <mxGeometry width="50" height="50" relative="1" as="geometry">
            <mxPoint x="740" y="220" as="sourcePoint" />
            <mxPoint x="705" y="220" as="targetPoint" />
          </mxGeometry>
        </mxCell>
        <mxCell id="C64Jrk6upL9wqdpvDmy1-21" value="&lt;b&gt;Telephely&lt;/b&gt;" style="ellipse;whiteSpace=wrap;html=1;" parent="1" vertex="1">
          <mxGeometry x="737" y="200" width="90" height="40" as="geometry" />
        </mxCell>
        <mxCell id="C64Jrk6upL9wqdpvDmy1-22" value="" style="endArrow=none;html=1;rounded=0;entryX=0.744;entryY=0.975;entryDx=0;entryDy=0;entryPerimeter=0;exitX=0.5;exitY=0;exitDx=0;exitDy=0;" parent="1" source="C64Jrk6upL9wqdpvDmy1-25" target="C64Jrk6upL9wqdpvDmy1-11" edge="1">
          <mxGeometry width="50" height="50" relative="1" as="geometry">
            <mxPoint x="730" y="360" as="sourcePoint" />
            <mxPoint x="670" y="330" as="targetPoint" />
          </mxGeometry>
        </mxCell>
        <mxCell id="C64Jrk6upL9wqdpvDmy1-23" value="&lt;b&gt;Irszám&lt;/b&gt;" style="ellipse;whiteSpace=wrap;html=1;" parent="1" vertex="1">
          <mxGeometry x="500" y="370" width="90" height="40" as="geometry" />
        </mxCell>
        <mxCell id="C64Jrk6upL9wqdpvDmy1-24" value="&lt;b&gt;Város&lt;/b&gt;" style="ellipse;whiteSpace=wrap;html=1;" parent="1" vertex="1">
          <mxGeometry x="610" y="370" width="90" height="40" as="geometry" />
        </mxCell>
        <mxCell id="C64Jrk6upL9wqdpvDmy1-25" value="&lt;b&gt;hazszam&lt;/b&gt;" style="ellipse;whiteSpace=wrap;html=1;" parent="1" vertex="1">
          <mxGeometry x="720" y="370" width="90" height="40" as="geometry" />
        </mxCell>
        <mxCell id="SZVWSAwwZCRuz0jDByGa-1" value="" style="endArrow=classic;html=1;rounded=0;entryX=0;entryY=0.5;entryDx=0;entryDy=0;" parent="1" target="C64Jrk6upL9wqdpvDmy1-3" edge="1">
          <mxGeometry width="50" height="50" relative="1" as="geometry">
            <mxPoint x="470" y="220" as="sourcePoint" />
            <mxPoint x="520" y="170" as="targetPoint" />
          </mxGeometry>
        </mxCell>
        <mxCell id="SZVWSAwwZCRuz0jDByGa-2" value="" style="endArrow=classic;html=1;rounded=0;" parent="1" edge="1">
          <mxGeometry width="50" height="50" relative="1" as="geometry">
            <mxPoint x="390" y="219.5" as="sourcePoint" />
            <mxPoint x="260" y="220" as="targetPoint" />
          </mxGeometry>
        </mxCell>
        <mxCell id="SZVWSAwwZCRuz0jDByGa-3" value="" style="endArrow=classic;html=1;rounded=0;entryX=1;entryY=0.5;entryDx=0;entryDy=0;" parent="1" target="C64Jrk6upL9wqdpvDmy1-1" edge="1">
          <mxGeometry width="50" height="50" relative="1" as="geometry">
            <mxPoint x="390" y="219.5" as="sourcePoint" />
            <mxPoint x="250" y="210" as="targetPoint" />
          </mxGeometry>
        </mxCell>
        <mxCell id="SZVWSAwwZCRuz0jDByGa-6" value="&lt;b&gt;T-GY&lt;/b&gt;" style="shape=rhombus;whiteSpace=wrap;html=1;strokeWidth=3;" parent="1" vertex="1">
          <mxGeometry x="390" y="180" width="80" height="80" as="geometry" />
        </mxCell>
        <mxCell id="55Ll8s9f8AJblrSIZAg2-4" value="" style="ellipse;whiteSpace=wrap;html=1;" vertex="1" parent="1">
          <mxGeometry y="195" width="100" height="50" as="geometry" />
        </mxCell>
        <mxCell id="55Ll8s9f8AJblrSIZAg2-5" value="&lt;b&gt;Egység_db&lt;/b&gt;" style="ellipse;whiteSpace=wrap;html=1;" vertex="1" parent="1">
          <mxGeometry x="5" y="200" width="90" height="40" as="geometry" />
        </mxCell>
        <mxCell id="55Ll8s9f8AJblrSIZAg2-6" value="&lt;b&gt;T_A&lt;/b&gt;" style="shape=rhombus;whiteSpace=wrap;html=1;strokeWidth=3;" vertex="1" parent="1">
          <mxGeometry x="145" y="50" width="80" height="80" as="geometry" />
        </mxCell>
        <mxCell id="55Ll8s9f8AJblrSIZAg2-7" value="" style="endArrow=classic;html=1;rounded=0;exitX=0.5;exitY=1;exitDx=0;exitDy=0;entryX=0.5;entryY=0;entryDx=0;entryDy=0;" edge="1" parent="1" source="55Ll8s9f8AJblrSIZAg2-6" target="C64Jrk6upL9wqdpvDmy1-1">
          <mxGeometry width="50" height="50" relative="1" as="geometry">
            <mxPoint x="184.5" y="95" as="sourcePoint" />
            <mxPoint x="180" y="180" as="targetPoint" />
          </mxGeometry>
        </mxCell>
        <mxCell id="55Ll8s9f8AJblrSIZAg2-8" value="" style="endArrow=classic;html=1;rounded=0;exitX=0.5;exitY=1;exitDx=0;exitDy=0;" edge="1" parent="1" source="55Ll8s9f8AJblrSIZAg2-6">
          <mxGeometry width="50" height="50" relative="1" as="geometry">
            <mxPoint x="185" y="140" as="sourcePoint" />
            <mxPoint x="185" y="170" as="targetPoint" />
          </mxGeometry>
        </mxCell>
        <mxCell id="55Ll8s9f8AJblrSIZAg2-9" value="" style="endArrow=none;html=1;rounded=0;entryX=0;entryY=0.5;entryDx=0;entryDy=0;" edge="1" parent="1" target="C64Jrk6upL9wqdpvDmy1-1">
          <mxGeometry width="50" height="50" relative="1" as="geometry">
            <mxPoint x="100" y="220" as="sourcePoint" />
            <mxPoint x="150" y="170" as="targetPoint" />
          </mxGeometry>
        </mxCell>
      </root>
    </mxGraphModel>
  </diagram>
</mxfile>
